<svg width="908" height="175" viewBox="0 0 908 175" fill="none" xmlns="http://www.w3.org/2000/svg">
<rect x="21" y="21" width="869" height="128" fill="#F0DB4F"/>
<path d="M260 65.4219H285.922V108.641H302.469V116.141H260V108.641H277.25V72.9688H260V65.4219ZM276.125 52.1094C276.125 51.3594 276.234 50.6562 276.453 50C276.703 49.3438 277.078 48.7812 277.578 48.3125C277.984 47.9062 278.5 47.5938 279.125 47.375C279.781 47.125 280.516 47 281.328 47C282.141 47 282.859 47.125 283.484 47.375C284.109 47.5938 284.625 47.9062 285.031 48.3125C285.531 48.75 285.906 49.2969 286.156 49.9531C286.406 50.6094 286.531 51.3281 286.531 52.1094C286.531 53.5156 286.094 54.6875 285.219 55.625C284.344 56.5625 283.047 57.0312 281.328 57.0312C279.578 57.0312 278.266 56.5625 277.391 55.625C276.547 54.6875 276.125 53.5156 276.125 52.1094Z" fill="#323330"/>
<path d="M315 90.2188C315 86.4375 315.469 82.9688 316.406 79.8125C317.375 76.625 318.75 73.8906 320.531 71.6094C322.281 69.3281 324.406 67.5469 326.906 66.2656C329.406 64.9844 332.203 64.3438 335.297 64.3438C338.328 64.3438 340.969 64.8594 343.219 65.8906C345.5 66.8906 347.469 68.3594 349.125 70.2969V44H357.797V116H349.828L349.453 110.656C347.766 112.719 345.75 114.281 343.406 115.344C341.062 116.406 338.328 116.938 335.203 116.938C332.141 116.938 329.359 116.281 326.859 114.969C324.391 113.656 322.281 111.844 320.531 109.531C318.781 107.219 317.422 104.5 316.453 101.375C315.484 98.2188 315 94.8281 315 91.2031V90.2188ZM323.672 91.2031C323.672 93.6719 323.938 96.0156 324.469 98.2344C325 100.453 325.828 102.406 326.953 104.094C328.047 105.781 329.453 107.125 331.172 108.125C332.891 109.094 334.953 109.578 337.359 109.578C340.266 109.578 342.672 108.922 344.578 107.609C346.484 106.297 348 104.531 349.125 102.312V78.7812C348 76.7188 346.484 75.0312 344.578 73.7188C342.672 72.375 340.297 71.7031 337.453 71.7031C335.016 71.7031 332.922 72.2031 331.172 73.2031C329.453 74.2031 328.047 75.5469 326.953 77.2344C325.828 78.9531 325 80.9375 324.469 83.1875C323.938 85.4062 323.672 87.75 323.672 90.2188V91.2031Z" fill="#323330"/>
<path d="M396.234 116.594C392.672 116.594 389.391 115.984 386.391 114.766C383.422 113.547 380.875 111.844 378.75 109.656C376.625 107.469 374.969 104.875 373.781 101.875C372.594 98.875 372 95.6094 372 92.0781V90.1094C372 86.0156 372.656 82.3594 373.969 79.1406C375.281 75.8906 377.031 73.1406 379.219 70.8906C381.375 68.6719 383.828 66.9688 386.578 65.7812C389.359 64.5938 392.203 64 395.109 64C398.766 64 401.953 64.6406 404.672 65.9219C407.422 67.1719 409.703 68.9062 411.516 71.125C413.328 73.375 414.672 76.0156 415.547 79.0469C416.453 82.0781 416.906 85.3594 416.906 88.8906V92.7812H380.672V93.1094C380.891 95.5781 381.375 97.75 382.125 99.625C382.906 101.5 383.969 103.156 385.312 104.594C386.688 106.125 388.344 107.328 390.281 108.203C392.219 109.078 394.359 109.516 396.703 109.516C399.797 109.516 402.547 108.891 404.953 107.641C407.359 106.391 409.359 104.734 410.953 102.672L416.25 106.797C414.562 109.359 412.031 111.641 408.656 113.641C405.312 115.609 401.172 116.594 396.234 116.594ZM395.109 71.125C393.359 71.125 391.703 71.4531 390.141 72.1094C388.578 72.7344 387.172 73.6562 385.922 74.875C384.672 76.125 383.609 77.6562 382.734 79.4688C381.891 81.25 381.297 83.3125 380.953 85.6562H408.234V85.2344C408.234 83.6719 407.938 82 407.344 80.2188C406.75 78.4062 405.922 76.8438 404.859 75.5312C403.797 74.2188 402.453 73.1562 400.828 72.3438C399.234 71.5312 397.328 71.125 395.109 71.125Z" fill="#323330"/>
<path d="M465.656 102.203C465.656 101.172 465.453 100.25 465.047 99.4375C464.641 98.5938 463.953 97.8281 462.984 97.1406C462.016 96.4531 460.734 95.8281 459.141 95.2656C457.547 94.6719 455.562 94.1406 453.188 93.6719C450.281 93.0781 447.625 92.3594 445.219 91.5156C442.844 90.6719 440.812 89.6562 439.125 88.4688C437.406 87.3125 436.078 85.9531 435.141 84.3906C434.203 82.7969 433.734 80.9531 433.734 78.8594C433.734 76.7969 434.219 74.875 435.188 73.0938C436.156 71.2812 437.516 69.7031 439.266 68.3594C441.016 67.0156 443.094 65.9531 445.5 65.1719C447.938 64.3906 450.609 64 453.516 64C456.641 64 459.453 64.4062 461.953 65.2188C464.453 66.0312 466.578 67.1562 468.328 68.5938C470.078 70.0312 471.422 71.7188 472.359 73.6562C473.328 75.5625 473.812 77.625 473.812 79.8438H465.141C465.141 78.75 464.859 77.6875 464.297 76.6562C463.734 75.5938 462.953 74.6562 461.953 73.8438C460.953 73.0312 459.734 72.375 458.297 71.875C456.891 71.375 455.297 71.125 453.516 71.125C451.672 71.125 450.047 71.3281 448.641 71.7344C447.266 72.1406 446.125 72.6875 445.219 73.375C444.281 74.0625 443.578 74.8594 443.109 75.7656C442.641 76.6719 442.406 77.6094 442.406 78.5781C442.406 79.5781 442.594 80.4688 442.969 81.25C443.344 82.0312 444 82.7344 444.938 83.3594C445.844 83.9844 447.062 84.5469 448.594 85.0469C450.156 85.5469 452.125 86.0312 454.5 86.5C457.625 87.1562 460.422 87.9219 462.891 88.7969C465.359 89.6406 467.438 90.6562 469.125 91.8438C470.812 93.0625 472.094 94.4688 472.969 96.0625C473.875 97.6562 474.328 99.5 474.328 101.594C474.328 103.844 473.812 105.891 472.781 107.734C471.781 109.578 470.375 111.156 468.562 112.469C466.75 113.781 464.578 114.797 462.047 115.516C459.516 116.234 456.75 116.594 453.75 116.594C450.312 116.594 447.25 116.141 444.562 115.234C441.875 114.297 439.609 113.062 437.766 111.531C435.891 110.031 434.453 108.281 433.453 106.281C432.484 104.281 432 102.203 432 100.047H440.672C440.797 101.828 441.266 103.328 442.078 104.547C442.922 105.766 443.969 106.75 445.219 107.5C446.438 108.25 447.797 108.781 449.297 109.094C450.797 109.406 452.281 109.562 453.75 109.562C456.062 109.562 458.078 109.297 459.797 108.766C461.516 108.203 462.859 107.438 463.828 106.469C464.422 105.875 464.875 105.219 465.188 104.5C465.5 103.781 465.656 103.016 465.656 102.203Z" fill="#323330"/>
<path d="M511.062 109.562C512.625 109.562 514.141 109.312 515.609 108.812C517.109 108.312 518.438 107.609 519.594 106.703C520.75 105.828 521.672 104.797 522.359 103.609C523.078 102.391 523.453 101.078 523.484 99.6719H531.688C531.656 101.922 531.062 104.078 529.906 106.141C528.781 108.172 527.266 109.953 525.359 111.484C523.453 113.047 521.266 114.297 518.797 115.234C516.328 116.141 513.75 116.594 511.062 116.594C507.219 116.594 503.859 115.906 500.984 114.531C498.109 113.156 495.719 111.297 493.812 108.953C491.875 106.641 490.422 103.969 489.453 100.938C488.484 97.875 488 94.6562 488 91.2812V89.3125C488 85.9688 488.484 82.7656 489.453 79.7031C490.422 76.6406 491.875 73.9375 493.812 71.5938C495.719 69.2812 498.109 67.4375 500.984 66.0625C503.859 64.6875 507.219 64 511.062 64C514.062 64 516.812 64.4844 519.312 65.4531C521.844 66.3906 524.031 67.6719 525.875 69.2969C527.688 70.9531 529.109 72.9062 530.141 75.1562C531.172 77.4062 531.688 79.8125 531.688 82.375H523.484C523.453 80.8438 523.109 79.4062 522.453 78.0625C521.828 76.6875 520.969 75.4844 519.875 74.4531C518.781 73.4219 517.469 72.6094 515.938 72.0156C514.438 71.4219 512.812 71.125 511.062 71.125C508.375 71.125 506.109 71.6719 504.266 72.7656C502.453 73.8281 500.984 75.2188 499.859 76.9375C498.734 78.6875 497.922 80.6406 497.422 82.7969C496.953 84.9531 496.719 87.125 496.719 89.3125V91.2812C496.719 93.5 496.953 95.7031 497.422 97.8906C497.922 100.047 498.734 101.984 499.859 103.703C500.953 105.453 502.406 106.875 504.219 107.969C506.062 109.031 508.344 109.562 511.062 109.562Z" fill="#323330"/>
<path d="M579.969 64C581.562 64 583.219 64.1094 584.938 64.3281C586.688 64.5469 588 64.8438 588.875 65.2188L587.703 73.7031C586.016 73.3281 584.406 73.0625 582.875 72.9062C581.375 72.7188 579.797 72.625 578.141 72.625C576.016 72.625 574.094 72.8906 572.375 73.4219C570.656 73.9219 569.156 74.6719 567.875 75.6719C566.719 76.5469 565.703 77.625 564.828 78.9062C563.984 80.1562 563.281 81.5625 562.719 83.125V115.656H554V64.9375H562.25L562.625 71.7344L562.672 73C564.734 70.2188 567.203 68.0312 570.078 66.4375C572.984 64.8125 576.281 64 579.969 64Z" fill="#323330"/>
<path d="M606 65.4219H631.922V108.641H648.469V116.141H606V108.641H623.25V72.9688H606V65.4219ZM622.125 52.1094C622.125 51.3594 622.234 50.6562 622.453 50C622.703 49.3438 623.078 48.7812 623.578 48.3125C623.984 47.9062 624.5 47.5938 625.125 47.375C625.781 47.125 626.516 47 627.328 47C628.141 47 628.859 47.125 629.484 47.375C630.109 47.5938 630.625 47.9062 631.031 48.3125C631.531 48.75 631.906 49.2969 632.156 49.9531C632.406 50.6094 632.531 51.3281 632.531 52.1094C632.531 53.5156 632.094 54.6875 631.219 55.625C630.344 56.5625 629.047 57.0312 627.328 57.0312C625.578 57.0312 624.266 56.5625 623.391 55.625C622.547 54.6875 622.125 53.5156 622.125 52.1094Z" fill="#323330"/>
<path d="M662 135.156V64.9375H669.922L670.344 70.4688C671.031 69.5938 671.781 68.8125 672.594 68.125C673.406 67.4062 674.281 66.7969 675.219 66.2969C676.531 65.5469 677.984 64.9844 679.578 64.6094C681.203 64.2031 682.938 64 684.781 64C688.031 64 690.906 64.6406 693.406 65.9219C695.906 67.2031 698 68.9844 699.688 71.2656C701.375 73.5469 702.656 76.2812 703.531 79.4688C704.406 82.625 704.844 86.0938 704.844 89.875V90.8594C704.844 94.4844 704.406 97.875 703.531 101.031C702.656 104.156 701.375 106.875 699.688 109.188C698 111.5 695.906 113.312 693.406 114.625C690.938 115.938 688.109 116.594 684.922 116.594C682.984 116.594 681.172 116.391 679.484 115.984C677.828 115.578 676.328 115 674.984 114.25C674.172 113.781 673.406 113.266 672.688 112.703C671.969 112.109 671.297 111.469 670.672 110.781V135.156H662ZM696.172 89.875C696.172 87.4062 695.891 85.0625 695.328 82.8438C694.797 80.5938 693.969 78.6094 692.844 76.8906C691.688 75.2031 690.234 73.8594 688.484 72.8594C686.734 71.8594 684.641 71.3594 682.203 71.3594C680.859 71.3594 679.609 71.5156 678.453 71.8281C677.328 72.1406 676.312 72.5938 675.406 73.1875C674.406 73.7812 673.516 74.5156 672.734 75.3906C671.953 76.2656 671.266 77.2344 670.672 78.2969V102.719C671.203 103.656 671.812 104.531 672.5 105.344C673.188 106.156 673.969 106.844 674.844 107.406C675.844 108.062 676.953 108.578 678.172 108.953C679.422 109.328 680.797 109.516 682.297 109.516C684.703 109.516 686.781 109.016 688.531 108.016C690.281 106.984 691.719 105.609 692.844 103.891C693.969 102.172 694.797 100.188 695.328 97.9375C695.891 95.6875 696.172 93.3281 696.172 90.8594V89.875Z" fill="#323330"/>
<path d="M740.031 53V65.2812H759.344V71.9844H740.031V99.5469C740.031 101.516 740.281 103.141 740.781 104.422C741.281 105.703 741.969 106.719 742.844 107.469C743.719 108.25 744.719 108.797 745.844 109.109C747 109.422 748.219 109.578 749.5 109.578C750.438 109.578 751.406 109.531 752.406 109.438C753.406 109.312 754.391 109.172 755.359 109.016C756.297 108.859 757.172 108.703 757.984 108.547C758.828 108.359 759.516 108.203 760.047 108.078L761.266 114.219C760.547 114.656 759.672 115.047 758.641 115.391C757.609 115.703 756.484 115.969 755.266 116.188C754.047 116.438 752.75 116.625 751.375 116.75C750.031 116.875 748.688 116.938 747.344 116.938C745.094 116.938 742.984 116.625 741.016 116C739.078 115.344 737.391 114.312 735.953 112.906C734.516 111.531 733.375 109.75 732.531 107.562C731.719 105.344 731.312 102.672 731.312 99.5469V71.9844H718V65.2812H731.312V53H740.031Z" fill="#323330"/>
<path d="M234.141 115.719L233.625 108.734C231.938 111.234 229.828 113.188 227.297 114.594C224.766 115.969 221.844 116.656 218.531 116.656C215.875 116.656 213.469 116.25 211.312 115.438C209.156 114.594 207.312 113.297 205.781 111.547C204.25 109.797 203.062 107.578 202.219 104.891C201.406 102.172 201 98.9219 201 95.1406V65H209.672V95.2344C209.672 97.9844 209.891 100.266 210.328 102.078C210.766 103.891 211.422 105.328 212.297 106.391C213.172 107.484 214.234 108.25 215.484 108.688C216.766 109.125 218.234 109.344 219.891 109.344C221.828 109.344 223.562 109.125 225.094 108.688C226.625 108.219 227.953 107.578 229.078 106.766C230.016 106.109 230.828 105.328 231.516 104.422C232.234 103.484 232.828 102.469 233.297 101.375V65H242.016V115.719H234.141Z" fill="#323330"/>
<path d="M142 89.875C142 86.0938 142.453 82.625 143.359 79.4688C144.297 76.2812 145.641 73.5469 147.391 71.2656C149.141 68.9844 151.266 67.2031 153.766 65.9219C156.266 64.6406 159.094 64 162.25 64C164.281 64 166.141 64.2344 167.828 64.7031C169.547 65.1719 171.094 65.8594 172.469 66.7656C173.219 67.2344 173.922 67.7812 174.578 68.4062C175.266 69.0312 175.906 69.7188 176.5 70.4688L176.922 64.9375H184.797V114.578C184.797 117.922 184.266 120.891 183.203 123.484C182.172 126.078 180.719 128.281 178.844 130.094C176.938 131.906 174.672 133.281 172.047 134.219C169.422 135.156 166.516 135.625 163.328 135.625C162.016 135.625 160.516 135.469 158.828 135.156C157.141 134.875 155.438 134.391 153.719 133.703C151.969 133.047 150.281 132.156 148.656 131.031C147.062 129.906 145.688 128.516 144.531 126.859L149.031 121.656C150.094 122.938 151.188 124.016 152.312 124.891C153.438 125.797 154.578 126.516 155.734 127.047C156.891 127.578 158.047 127.953 159.203 128.172C160.359 128.422 161.516 128.547 162.672 128.547C164.734 128.547 166.594 128.25 168.25 127.656C169.906 127.062 171.328 126.188 172.516 125.031C173.672 123.906 174.562 122.5 175.188 120.812C175.812 119.125 176.125 117.188 176.125 115V110.641C175.469 111.391 174.766 112.078 174.016 112.703C173.297 113.328 172.516 113.875 171.672 114.344C170.359 115.062 168.906 115.609 167.312 115.984C165.719 116.391 164 116.594 162.156 116.594C159.062 116.594 156.266 115.938 153.766 114.625C151.266 113.312 149.156 111.5 147.438 109.188C145.688 106.875 144.344 104.156 143.406 101.031C142.469 97.875 142 94.4844 142 90.8594V89.875ZM150.672 90.8594C150.672 93.3281 150.922 95.6719 151.422 97.8906C151.953 100.109 152.781 102.062 153.906 103.75C155 105.438 156.406 106.781 158.125 107.781C159.844 108.75 161.906 109.234 164.312 109.234C165.812 109.234 167.156 109.062 168.344 108.719C169.562 108.344 170.656 107.828 171.625 107.172C172.562 106.516 173.406 105.734 174.156 104.828C174.906 103.922 175.562 102.922 176.125 101.828V78.5781C175.562 77.5156 174.906 76.5469 174.156 75.6719C173.406 74.7969 172.547 74.0312 171.578 73.375C170.609 72.75 169.531 72.2656 168.344 71.9219C167.156 71.5469 165.844 71.3594 164.406 71.3594C161.969 71.3594 159.875 71.8594 158.125 72.8594C156.406 73.8594 155 75.2031 153.906 76.8906C152.781 78.6094 151.953 80.5938 151.422 82.8438C150.922 85.0625 150.672 87.4062 150.672 89.875V90.8594Z" fill="#323330"/>
<path d="M808.656 59.4688H801.625L790 47H800.453L808.656 59.4688Z" fill="#323330"/>
<path d="M116.656 59.4688H109.625L98 47H108.453L116.656 59.4688Z" fill="#323330"/>
<path d="M65.7031 133.016C62.6719 132.922 60.0469 132.219 57.8281 130.906C55.6094 129.594 53.7656 127.859 52.2969 125.703C50.8906 123.641 49.8281 121.328 49.1094 118.766C48.3906 116.234 48.0312 113.719 48.0312 111.219V103.297C48.0312 98.7969 46.9531 95.5312 44.7969 93.5C42.6719 91.4688 39.4062 90.4375 35 90.4062V83.6094C39.4062 83.6094 42.6719 82.6094 44.7969 80.6094C46.9531 78.5781 48.0312 75.2969 48.0312 70.7656V62.7969C48.0312 60.2656 48.3594 57.6875 49.0156 55.0625C49.7031 52.4062 50.7812 50.0312 52.25 47.9375C53.625 45.9375 55.4219 44.3125 57.6406 43.0625C59.8594 41.7812 62.5469 41.0938 65.7031 41L66.6875 46.3906C64.4375 46.4531 62.6406 46.9844 61.2969 47.9844C59.9844 48.9844 59 50.25 58.3438 51.7812C57.6562 53.3438 57.2188 55.0938 57.0312 57.0312C56.8438 58.9688 56.75 60.8906 56.75 62.7969V70.7656C56.75 74.5156 55.875 77.8125 54.125 80.6562C52.4062 83.4688 49.7344 85.6094 46.1094 87.0781C49.7344 88.5156 52.4062 90.6562 54.125 93.5C55.8438 96.3125 56.7188 99.5781 56.75 103.297V111.219C56.75 113.156 56.9062 115.078 57.2188 116.984C57.5312 118.922 58.0781 120.656 58.8594 122.188C59.6094 123.75 60.6094 125.031 61.8594 126.031C63.1406 127.031 64.75 127.562 66.6875 127.625L65.7031 133.016Z" fill="#323330"/>
<path d="M842.984 133.016C846.016 132.922 848.641 132.219 850.859 130.906C853.078 129.594 854.922 127.859 856.391 125.703C857.797 123.641 858.859 121.328 859.578 118.766C860.297 116.234 860.656 113.719 860.656 111.219V103.297C860.656 98.7969 861.734 95.5312 863.891 93.5C866.016 91.4688 869.281 90.4375 873.688 90.4062V83.6094C869.281 83.6094 866.016 82.6094 863.891 80.6094C861.734 78.5781 860.656 75.2969 860.656 70.7656V62.7969C860.656 60.2656 860.328 57.6875 859.672 55.0625C858.984 52.4062 857.906 50.0312 856.438 47.9375C855.062 45.9375 853.266 44.3125 851.047 43.0625C848.828 41.7812 846.141 41.0938 842.984 41L842 46.3906C844.25 46.4531 846.047 46.9844 847.391 47.9844C848.703 48.9844 849.688 50.25 850.344 51.7812C851.031 53.3438 851.469 55.0938 851.656 57.0312C851.844 58.9688 851.938 60.8906 851.938 62.7969V70.7656C851.938 74.5156 852.812 77.8125 854.562 80.6562C856.281 83.4688 858.953 85.6094 862.578 87.0781C858.953 88.5156 856.281 90.6562 854.562 93.5C852.844 96.3125 851.969 99.5781 851.938 103.297V111.219C851.938 113.156 851.781 115.078 851.469 116.984C851.156 118.922 850.609 120.656 849.828 122.188C849.078 123.75 848.078 125.031 846.828 126.031C845.547 127.031 843.938 127.562 842 127.625L842.984 133.016Z" fill="#323330"/>
</svg>
